# xmcd CD database file
#
# Track frame offsets:
#	150
#	12295
#	23767
#	36842
#	49190
#	61055
#	71190
#	82407
#	93545
#	105750
#	116167
#	130295
#	140920
#	151167
#	162797
#	175102
#	185817
#	199992
#	212352
#	223602
#	237205
#	251142
#	264082
#	275970
#	291177
#
# Disc length: 4063 seconds
#
# Revision: 2
# Processed by: cddbd v1.5.2PL0 Copyright (c) Steve Scherf et al.
# Submitted via: CDex 1.51
#
DISCID=790fdd19
DTITLE=Carmen Miranda - The Brazilian Bombshell - 25 Hits 1939-1947
DYEAR=1998
DGENRE=Jazz
TTITLE0=Mama Eu Quero (I Want My Mama)
TTITLE1=Bambu-Bambu
TTITLE2=South American Way
TTITLE3=Co, Co, Co, Co, Co, Co, Ro
TTITLE4=Touradas Em Madrid
TTITLE5=I, Yi, Yi, Yi, Yi (I Like You Very Much)
TTITLE6=Chica Chica Boom Chic
TTITLE7=Cae, Cae
TTITLE8=Alo Alo
TTITLE9=Arca De Noe
TTITLE10=A Week-End In Havana
TTITLE11=The Man With The Lollipop Song
TTITLE12=Rebola A Bola
TTITLE13=When I Love, I Love
TTITLE14=Ella Diz Que Tem
TTITLE15=Nao Te Dou A Chupeta
TTITLE16=Manuelo
TTITLE17=Chattanooga Choo-Choo
TTITLE18=Tic-Tac Do Meu Coracão
TTITLE19=O Passo Du Kanguru
TTITLE20=Boneca De Pixe
TTITLE21=Upa, Upa
TTITLE22=Tico-Tico
TTITLE23=The Matador
TTITLE24=Cuanto Le Gusta
EXTD=YEAR: 1998
EXTT0=
EXTT1=
EXTT2=
EXTT3=
EXTT4=
EXTT5=
EXTT6=
EXTT7=
EXTT8=
EXTT9=
EXTT10=
EXTT11=
EXTT12=
EXTT13=
EXTT14=
EXTT15=
EXTT16=
EXTT17=
EXTT18=
EXTT19=
EXTT20=
EXTT21=
EXTT22=
EXTT23=
EXTT24=
PLAYORDER=
